<svg width="100" height="100" xmlns="http://www.w3.org/2000/svg" viewBox="0 0 100 100">
  <!-- Background Circle -->
  <circle cx="50" cy="50" r="48" stroke="black" stroke-width="2" fill="none"/>

  <!-- DNA Helix Symbol -->
  <g transform="translate(15, 10)">
    <path d="M10,10 C20,20 30,20 40,10 C50,0 60,0 70,10 C80,20 90,20 100,10" stroke="black" stroke-width="2" fill="none"/>
    <path d="M10,70 C20,60 30,60 40,70 C50,80 60,80 70,70 C80,60 90,60 100,70" stroke="black" stroke-width="2" fill="none"/>
    <path d="M30,10 C40,20 50,20 60,10" stroke="black" stroke-width="2" fill="none"/>
    <path d="M50,10 C60,20 70,20 80,10" stroke="black" stroke-width="2" fill="none"/>
    <path d="M30,70 C40,60 50,60 60,70" stroke="black" stroke-width="2" fill="none"/>
    <path d="M50,70 C60,60 70,60 80,70" stroke="black" stroke-width="2" fill="none"/>
  </g>

  <!-- Greedy Algorithm Symbol -->
  <g transform="translate(15, 10)">
    <path d="M10,40 L30,40 L30,60 L50,60" stroke="black" stroke-width="2" fill="none"/>
    <circle cx="10" cy="40" r="2" fill="black"/>
    <circle cx="30" cy="40" r="2" fill="black"/>
    <circle cx="30" cy="60" r="2" fill="black"/>
    <circle cx="50" cy="60" r="2" fill="black"/>
  </g>
</svg>
